#N canvas 0 54 448 378 12;
#X obj 21 26 inlet;
#X obj 18 84 route -1 -2 -3 -4 -5 -6;
#X msg 16 136 set ERROR_NOT_INITIALIZED;
#X symbolatom 0 0 25 0 0 0 - - -;
#X msg 43 163 set ERROR_INVALID_DEVNUM;
#X msg 72 193 set ERROR_NULL_POINTS;
#X msg 99 220 set ERROR_TOO_MANY_POINTS;
#X msg 122 251 set HELIOS_ERROR_PPS_TOO_HIGH;
#X msg 149 280 set HELIOS_ERROR_PPS_TOO_LOW;
#X obj 176 315 makefilename %d;
#X obj 242 130 outlet;
#X obj 21 55 change;
#X connect 0 0 11 0;
#X connect 1 0 2 0;
#X connect 1 1 4 0;
#X connect 1 2 5 0;
#X connect 1 3 6 0;
#X connect 1 4 7 0;
#X connect 1 5 8 0;
#X connect 1 6 9 0;
#X connect 1 6 10 0;
#X connect 2 0 3 0;
#X connect 4 0 3 0;
#X connect 5 0 3 0;
#X connect 6 0 3 0;
#X connect 8 0 3 0;
#X connect 9 0 3 0;
#X connect 11 0 1 0;
#X coords 0 -1 1 1 177 19 2 0 0;
